<mxfile host="65bd71144e">
    <diagram id="WltgSqhoBwqmVjUqrQs1" name="Page-1">
        <mxGraphModel dx="796" dy="571" grid="1" gridSize="10" guides="1" tooltips="1" connect="1" arrows="1" fold="1" page="1" pageScale="1" pageWidth="850" pageHeight="1100" math="0" shadow="0">
            <root>
                <mxCell id="0"/>
                <mxCell id="1" parent="0"/>
                <mxCell id="4" style="edgeStyle=none;html=1;" parent="1" edge="1">
                    <mxGeometry relative="1" as="geometry">
                        <mxPoint x="440" y="216.29032258064512" as="sourcePoint"/>
                        <mxPoint x="440" y="233.70967741935488" as="targetPoint"/>
                    </mxGeometry>
                </mxCell>
                <mxCell id="5" value="" style="rounded=0;whiteSpace=wrap;html=1;fillColor=#a20025;fontColor=#ffffff;strokeColor=#6F0000;" parent="1" vertex="1">
                    <mxGeometry x="180" y="100" width="440" height="360" as="geometry"/>
                </mxCell>
                <mxCell id="15" value="Player" style="text;strokeColor=none;fillColor=none;html=1;fontSize=14;fontStyle=1;verticalAlign=middle;align=center;" parent="5" vertex="1">
                    <mxGeometry x="100" y="60" width="100" height="40" as="geometry"/>
                </mxCell>
                <mxCell id="17" value="" style="whiteSpace=wrap;html=1;aspect=fixed;fontSize=14;fillColor=#f0a30a;fontColor=#000000;strokeColor=#BD7000;" parent="5" vertex="1">
                    <mxGeometry x="100" y="120" width="20" height="20" as="geometry"/>
                </mxCell>
                <mxCell id="18" value="Start" style="text;strokeColor=none;fillColor=none;html=1;fontSize=14;fontStyle=1;verticalAlign=middle;align=center;" parent="5" vertex="1">
                    <mxGeometry x="70" y="140" width="100" height="40" as="geometry"/>
                </mxCell>
                <mxCell id="19" value="" style="ellipse;whiteSpace=wrap;html=1;aspect=fixed;fillColor=#a0522d;strokeColor=#6D1F00;fontColor=#ffffff;" parent="5" vertex="1">
                    <mxGeometry x="235" y="80" width="20" height="20" as="geometry"/>
                </mxCell>
                <mxCell id="20" value="Goal" style="text;strokeColor=none;fillColor=none;html=1;fontSize=14;fontStyle=1;verticalAlign=middle;align=center;" parent="5" vertex="1">
                    <mxGeometry x="200" y="100" width="100" height="40" as="geometry"/>
                </mxCell>
                <mxCell id="21" value="" style="rounded=0;whiteSpace=wrap;html=1;strokeColor=none;rotation=90;" parent="5" vertex="1">
                    <mxGeometry x="205" y="15" width="30" height="345" as="geometry"/>
                </mxCell>
                <mxCell id="10" value="&lt;font style=&quot;font-size: 14px;&quot;&gt;Map&lt;/font&gt;" style="text;strokeColor=none;fillColor=none;html=1;fontSize=24;fontStyle=1;verticalAlign=middle;align=center;" parent="5" vertex="1">
                    <mxGeometry y="290" width="100" height="40" as="geometry"/>
                </mxCell>
                <mxCell id="6" value="" style="rounded=0;whiteSpace=wrap;html=1;strokeColor=none;" parent="1" vertex="1">
                    <mxGeometry x="230" y="120" width="120" height="30" as="geometry"/>
                </mxCell>
                <mxCell id="7" value="" style="rounded=0;whiteSpace=wrap;html=1;strokeColor=none;" parent="1" vertex="1">
                    <mxGeometry x="230" y="150" width="30" height="130" as="geometry"/>
                </mxCell>
                <mxCell id="8" value="" style="ellipse;whiteSpace=wrap;html=1;aspect=fixed;fillColor=#f5f5f5;gradientColor=#b3b3b3;strokeColor=#666666;" parent="1" vertex="1">
                    <mxGeometry x="280" y="170" width="20" height="20" as="geometry"/>
                </mxCell>
                <mxCell id="9" value="" style="ellipse;whiteSpace=wrap;html=1;aspect=fixed;fillColor=#f5f5f5;gradientColor=#b3b3b3;strokeColor=#666666;" parent="1" vertex="1">
                    <mxGeometry x="310" y="200" width="20" height="20" as="geometry"/>
                </mxCell>
                <mxCell id="14" value="Wall" style="text;strokeColor=none;fillColor=none;html=1;fontSize=14;fontStyle=1;verticalAlign=middle;align=center;" parent="1" vertex="1">
                    <mxGeometry x="210" y="115" width="100" height="40" as="geometry"/>
                </mxCell>
            </root>
        </mxGraphModel>
    </diagram>
</mxfile>